<?xml version="1.0" encoding="utf-8"?>
<!-- Generator: Adobe Illustrator 22.1.0, SVG Export Plug-In . SVG Version: 6.00 Build 0)  -->
<svg version="1.1" id="Layer_1" xmlns="http://www.w3.org/2000/svg" xmlns:xlink="http://www.w3.org/1999/xlink" x="0px" y="0px"
	 viewBox="0 0 62 62" style="enable-background:new 0 0 62 62;" xml:space="preserve">
<style type="text/css">
	.st0{fill:#FFFFFF;}
	.st1{fill:#B3B3B3;}
	.st2{fill:#FFD11F;}
</style>
<title>person-icon</title>
<path class="st0" d="M-45.5,73"/>
<path class="st1" d="M81.8,3.9"/>
<path class="st1" d="M50.3-20.5"/>
<circle class="st0" cx="31" cy="31" r="27.1"/>
<circle class="st2" cx="32" cy="24.8" r="13"/>
<path class="st2" d="M31,0C13.9,0,0,13.9,0,31s13.9,31,31,31s31-13.9,31-31S48.1,0,31,0z M51.9,48.2c0.3-1.3,0.3-2.2,0.3-2.2
	c0-5.5-3-9.9-6.9-10.4c-0.2,0-0.3,0-0.5,0c0,0-0.1,0-0.1,0c-1.1,0-2.2,0.4-3.2,1c-3,1.4-6.6,3.9-9.9,3.9s-6.9-2.5-9.9-3.9
	c-1-0.6-2-1-3.2-1c0,0-0.1,0-0.1,0c-0.2,0-0.3,0-0.5,0C14.1,36,11,40.5,11,46c0,0,0,2,1.1,4.4c-5-4.9-8.2-11.8-8.2-19.4
	C3.9,16.1,16.1,3.9,31,3.9S58.1,16.1,58.1,31C58.1,37.5,55.8,43.5,51.9,48.2z"/>
</svg>
