<svg id="Layer_1" data-name="Layer 1" xmlns="http://www.w3.org/2000/svg" viewBox="0 0 238.72 71.37"><defs><style>.cls-1,.cls-8{fill:#f1d44b;}.cls-1,.cls-2,.cls-3,.cls-4,.cls-5,.cls-6{fill-rule:evenodd;}.cls-2{fill:#6c6865;}.cls-3,.cls-7{fill:#454955;}.cls-4{fill:#facd39;}.cls-5{fill:#f4dd6f;}.cls-6{fill:#f7e593;}</style></defs><title>horizontal-logo-238x71</title><path class="cls-1" d="M97.21,40.11c2.4,1.11,3.46,3.17,3.46,5.87v3.39A6.64,6.64,0,0,1,94.15,56h0a7.29,7.29,0,0,1-7-4.59,9.62,9.62,0,0,1-.61-3.18,8.83,8.83,0,0,1,3-7.29h0a7.17,7.17,0,0,1,7.63-.81Zm6.44-2a1.44,1.44,0,0,0-1.51-1.54,1.39,1.39,0,0,0-1.47,1.54v1.63c-1.34-2.36-4.2-3.35-6.69-3.35a10.35,10.35,0,0,0-3.83.73C85.7,39,83.5,43.28,83.62,48.26a10.73,10.73,0,0,0,6.2,9.86,10.31,10.31,0,0,0,4.41.82,7.28,7.28,0,0,0,6.53-3.78v2.32c0,4.42-3.47,6.39-7.19,6.39a8.18,8.18,0,0,1-5.79-2.15h0a1.5,1.5,0,1,0-2,2.23,10.22,10.22,0,0,0,7.79,3c5.59,0,10.08-3.21,10.08-9.43V38.09Zm5.78,19.3a1.49,1.49,0,0,0,3,0V38.05c0-1.85-3-1.8-3,0v19.3Zm3-25.86a1.53,1.53,0,0,0-3.06,0v1.93a1.53,1.53,0,0,0,3.06,0V31.53Zm17.77,8.58c2.41,1.11,3.47,3.17,3.47,5.87v3.39A6.64,6.64,0,0,1,127.16,56h0a7.29,7.29,0,0,1-7-4.59,9.62,9.62,0,0,1-.61-3.18,8.8,8.8,0,0,1,3-7.29h0a7.18,7.18,0,0,1,7.63-.81Zm6.45-2a1.44,1.44,0,0,0-1.51-1.54,1.39,1.39,0,0,0-1.47,1.54v1.63c-1.34-2.36-4.2-3.35-6.69-3.35a10.35,10.35,0,0,0-3.83.73c-4.45,1.93-6.66,6.18-6.53,11.16a10.72,10.72,0,0,0,6.2,9.86,10.31,10.31,0,0,0,4.41.82,7.27,7.27,0,0,0,6.52-3.78v2.32c0,4.42-3.46,6.39-7.18,6.39a8.18,8.18,0,0,1-5.79-2.15h0a1.5,1.5,0,1,0-2,2.23,10.22,10.22,0,0,0,7.79,3c5.59,0,10.08-3.21,10.08-9.43Z" transform="translate(-0.28 -1.63)"/><path class="cls-2" d="M150.39,37.77c-3.88,1.58-6.08,5.56-6.2,9.89-.13,5,2.08,9.24,6.48,11.13a9.65,9.65,0,0,0,8.94-.64,8.1,8.1,0,0,0,3-4v4.33c0,.47.24.77.69.77a.71.71,0,0,0,.74-.77V38a.71.71,0,0,0-.74-.78c-.45,0-.69.3-.69.78v4.32a8.07,8.07,0,0,0-3-4,10.45,10.45,0,0,0-9.22-.56Zm8,19.39a8.72,8.72,0,0,1-4.12.94,8.86,8.86,0,0,1-5-1.93,10.21,10.21,0,0,1-3.59-8.55,11.36,11.36,0,0,1,.74-3.73,8.77,8.77,0,0,1,8.36-5.43,9.06,9.06,0,0,1,3.63.85,8,8,0,0,1,4.25,7.06V50.1a8,8,0,0,1-4.25,7.06ZM175,37.26V31.77a.7.7,0,0,0-1.39,0v5.49H169.8c-1.11,0-1.11,1.37,0,1.37h3.79V51.8c0,4,1.1,7.63,5.67,7.63a5.86,5.86,0,0,0,3-.73c1.1-.6.33-1.71-.53-1.28a5.66,5.66,0,0,1-2.45.64c-3.79,0-4.28-3.17-4.28-6.26V38.63h5.67a.69.69,0,1,0,0-1.37Zm13.41,21.49a.72.72,0,1,0,1.43,0V37.86a.72.72,0,1,0-1.43,0V58.75Zm1.47-26.81a.76.76,0,0,0-1.51,0v2.4a.76.76,0,0,0,1.51,0v-2.4Zm23.89,6.86a.88.88,0,0,0-.61-1.5H196.78a.75.75,0,1,0,0,1.5l15,0-16,19a.76.76,0,0,0,.53,1.37h17.22a.73.73,0,0,0,0-1.46l-16,.09,16.24-19Zm17.74-1.5a12,12,0,0,0-6.16,0,10.78,10.78,0,0,0-7.47,10.08,12.19,12.19,0,0,0,2.45,8.19,10.25,10.25,0,0,0,8.2,3.82,10.06,10.06,0,0,0,7.22-2.57c.78-.82-.2-1.68-.94-1.08a9.85,9.85,0,0,1-6.4,2.19,9,9,0,0,1-6.94-3.3,9.63,9.63,0,0,1-2.08-5.1h18.36A1.19,1.19,0,0,0,239,48.11c-.09-5.53-2.94-9.52-7.51-10.81Zm-5.67,1.42a10.16,10.16,0,0,1,5.22,0c4.08,1.16,6.49,4.72,6.57,9.44H219.33C219.37,43.82,221.74,39.87,225.82,38.72Z" transform="translate(-0.28 -1.63)"/><path class="cls-3" d="M28,60.22a.59.59,0,0,0,.17.42.64.64,0,0,0,.43.18h2.86v2.23H28.6a2.87,2.87,0,0,1-2-.83,2.81,2.81,0,0,1-.83-2c0-3.47.47-4.77-2.29-6.81-.92-.68-1.81-1.36-2.68-2.11a21.07,21.07,0,0,1-3-3.15l-.26-.34,1.76-1.37.26.34a19.33,19.33,0,0,0,2.67,2.83c.83.71,1.67,1.36,2.55,2,3.6,2.65,3.2,4.11,3.2,8.6Zm9.31.6H40.5a.6.6,0,0,0,.42-.18.56.56,0,0,0,.18-.42c0-4.43-.4-6,3.17-8.58.92-.67,1.81-1.35,2.67-2.1A18.67,18.67,0,0,0,49.35,47l.27-.34L51.38,48l-.27.33a20.72,20.72,0,0,1-2.7,2.84c-.91.8-1.84,1.52-2.81,2.23-2.73,2-2.26,3.38-2.26,6.78a2.83,2.83,0,0,1-2.84,2.83H37.31Z" transform="translate(-0.28 -1.63)"/><path class="cls-4" d="M53.37,35.4a18.82,18.82,0,1,0-35.94,7.8,17.94,17.94,0,0,0,1.24,2.28l.21.33-1.77,1.37-.25-.39a21,21,0,0,1,2.8-26.25A21,21,0,0,1,53.74,44.07a22.67,22.67,0,0,1-1.65,3l-.26.38L50.06,46l.22-.33A18.56,18.56,0,0,0,53.37,35.4Z" transform="translate(-0.28 -1.63)"/><path class="cls-5" d="M47.91,35.36A13.36,13.36,0,1,0,22.4,40.9a11.93,11.93,0,0,0,.88,1.61l.15.24-1.26,1L22,43.45a15.83,15.83,0,0,1-1-1.89,14.95,14.95,0,1,1,27.22,0A15.4,15.4,0,0,1,47,43.62l-.18.27-1.26-1,.16-.23a12.89,12.89,0,0,0,1-1.82A13.21,13.21,0,0,0,47.91,35.36Z" transform="translate(-0.28 -1.63)"/><path class="cls-6" d="M42.21,35.19a7.66,7.66,0,1,0-14.62,3.18,7.4,7.4,0,0,0,.5.92l.09.13-.72.57-.1-.16a7.71,7.71,0,0,1-.6-1.09,8.57,8.57,0,1,1,15.59,0,7.83,7.83,0,0,1-.67,1.2l-.1.16-.72-.56.09-.13a7,7,0,0,0,.57-1A7.53,7.53,0,0,0,42.21,35.19Z" transform="translate(-0.28 -1.63)"/><rect class="cls-7" x="28.83" y="46.91" width="2.36" height="13.63" rx="1.18" ry="1.18"/><path class="cls-2" d="M38.54,43.68a1.75,1.75,0,1,0-1.75-1.75A1.76,1.76,0,0,0,38.54,43.68Z" transform="translate(-0.28 -1.63)"/><path class="cls-2" d="M30.2,47.7a1.63,1.63,0,1,0-1.63-1.63A1.63,1.63,0,0,0,30.2,47.7Z" transform="translate(-0.28 -1.63)"/><path class="cls-3" d="M38.49,44.76h0A1.2,1.2,0,0,1,39.68,46V61.33a1.19,1.19,0,0,1-1.19,1.18h0a1.18,1.18,0,0,1-1.18-1.09V56.49h0V46A1.19,1.19,0,0,1,38.49,44.76Z" transform="translate(-0.28 -1.63)"/><path class="cls-3" d="M28,64.43H40.84A1.2,1.2,0,0,1,42,65.62h0a1.19,1.19,0,0,1-1.19,1.19H28a1.19,1.19,0,0,1-1.2-1.19h0A1.2,1.2,0,0,1,28,64.43Z" transform="translate(-0.28 -1.63)"/><path class="cls-2" d="M34.47,36.33a1.85,1.85,0,1,0-1.86-1.85A1.86,1.86,0,0,0,34.47,36.33Z" transform="translate(-0.28 -1.63)"/><path class="cls-3" d="M29.52,68.2h9.82a1.19,1.19,0,0,1,1.19,1.19h0a1.2,1.2,0,0,1-1.19,1.19H29.52a1.2,1.2,0,0,1-1.2-1.19h0A1.19,1.19,0,0,1,29.52,68.2Z" transform="translate(-0.28 -1.63)"/><rect class="cls-8" x="33.1" width="1.78" height="9.12"/><polygon class="cls-1" points="16.28 4.89 17.83 4 22.4 11.9 20.85 12.79 16.28 4.89"/><polygon class="cls-1" points="4.17 17.51 5.06 15.97 12.97 20.53 12.08 22.07 4.17 17.51"/><rect class="cls-8" y="32.71" width="9.14" height="1.78"/><polygon class="cls-1" points="4.9 51.27 4.01 49.73 11.93 45.17 12.82 46.71 4.9 51.27"/><polygon class="cls-1" points="63.5 50 62.61 51.54 54.7 46.98 55.59 45.44 63.5 50"/><rect class="cls-8" x="58.53" y="33.02" width="9.14" height="1.78"/><polygon class="cls-1" points="62.77 16.24 63.66 17.79 55.74 22.35 54.85 20.8 62.77 16.24"/><polygon class="cls-1" points="50.12 4.16 51.66 5.05 47.09 12.95 45.55 12.06 50.12 4.16"/><path class="cls-3" d="M34.39,37.78h0A1.2,1.2,0,0,1,35.58,39V65.15a1.2,1.2,0,0,1-1.19,1.19h0a1.2,1.2,0,0,1-1.19-1.19V39A1.2,1.2,0,0,1,34.39,37.78Z" transform="translate(-0.28 -1.63)"/><path class="cls-3" d="M38.4,70.44a4.37,4.37,0,0,1-7.95,0Z" transform="translate(-0.28 -1.63)"/></svg>